<svg xmlns="http://www.w3.org/2000/svg"  viewBox="0 0 24 24" width="24px" height="24px" baseProfile="basic"><linearGradient id="Zf5wcWz8KwBCr8MiN1Gaha" x1="12" x2="12" y1="5.992" y2="23.077" gradientUnits="userSpaceOnUse"><stop offset="0" stop-color="#fff"/><stop offset="1" stop-color="#a6eafb"/></linearGradient><path fill="url(#Zf5wcWz8KwBCr8MiN1Gaha)" d="M12,20.5L12,20.5c2.761,0,5-2.239,5-5v-4c0-2.761-2.239-5-5-5h0c-2.761,0-5,2.239-5,5v4	C7,18.261,9.239,20.5,12,20.5z"/><linearGradient id="Zf5wcWz8KwBCr8MiN1Gahb" x1="12.005" x2="12.005" y1="2" y2="22" gradientUnits="userSpaceOnUse"><stop offset="0" stop-color="#4df0ff"/><stop offset="1" stop-color="#00b5ff"/></linearGradient><path fill="url(#Zf5wcWz8KwBCr8MiN1Gahb)" d="M14.194,17.323c-0.067,0.178-0.237,0.288-0.416,0.288c-0.052,0-0.104-0.009-0.156-0.028	c-0.545-0.205-1.083-0.29-1.621-0.29c-0.396,0-0.445,0.147-0.445,0.33c0,0.245-0.119,0.415-0.363,0.447	c-0.216,0.028-0.409-0.101-0.485-0.371c-0.043-0.151-0.13-0.188-0.33-0.116c-0.231,0.083-0.486-0.03-0.572-0.26	c-0.086-0.23,0.03-0.486,0.26-0.572c1.284-0.481,2.584-0.481,3.868,0C14.164,16.837,14.28,17.093,14.194,17.323z M14,12.945	c0,0.245-0.199,0.444-0.444,0.444s-0.444-0.199-0.444-0.444S13.31,12.5,13.555,12.5S14,12.699,14,12.945z M10.889,12.945	c0,0.245-0.199,0.444-0.444,0.444S10,13.19,10,12.945s0.199-0.444,0.444-0.444S10.889,12.699,10.889,12.945z M15.54,10.829	c0.064,0.237-0.08,0.469-0.313,0.545c-0.218,0.071-0.176,0.228-0.02,0.456c0.219,0.318,0.348,0.701,0.348,1.115c0,1.103-0.897,2-2,2	c-0.234,0-0.458-0.04-0.666-0.115c-0.26-0.092-0.445-0.049-0.445,0.167s0,0.392,0,0.392c0,0.245-0.199,0.444-0.444,0.444	s-0.444-0.199-0.444-0.444v-0.392c0-0.216-0.185-0.26-0.445-0.167c-0.208,0.074-0.433,0.115-0.666,0.115c-1.103,0-2-0.897-2-2	c0-0.406,0.124-0.782,0.334-1.096c0.154-0.23,0.231-0.381-0.036-0.484c-0.229-0.089-0.354-0.334-0.273-0.566	c0.081-0.232,0.334-0.355,0.566-0.274c1.621,0.564,3.848,0.561,5.96-0.009C15.23,10.453,15.475,10.592,15.54,10.829z M11.555,12.945	c0-0.612-0.498-1.111-1.111-1.111s-1.111,0.499-1.111,1.111s0.498,1.111,1.111,1.111S11.555,13.557,11.555,12.945z M14.666,12.945	c0-0.612-0.498-1.111-1.111-1.111s-1.111,0.499-1.111,1.111s0.498,1.111,1.111,1.111S14.666,13.557,14.666,12.945z M20.327,12.673	c-0.21,0.194-0.22,0.523-0.022,0.729l1.131,1.177c0.423,0.44,0.365,1.15-0.122,1.516l-0.995,0.748	c-0.156,0.117-0.23,0.314-0.19,0.505l0.231,1.106c0.146,0.697-0.436,1.325-1.11,1.199l-1.11-0.322	c-0.386-0.112-0.817-0.008-1.076,0.3C15.851,21.077,14.032,22,12,22s-3.851-0.923-5.064-2.37c-0.259-0.308-0.689-0.412-1.076-0.3	l-1.11,0.322c-0.675,0.125-1.256-0.502-1.11-1.2l0.231-1.106c0.04-0.191-0.034-0.388-0.19-0.505l-0.995-0.747	c-0.487-0.366-0.544-1.076-0.122-1.515l1.131-1.176c0.199-0.207,0.189-0.536-0.022-0.731l-1.568-1.443	C1.556,10.723,1.718,9.82,2.407,9.538l2.078-0.852C4.72,8.589,4.845,8.331,4.774,8.087l-0.641-2.2	c-0.204-0.701,0.36-1.386,1.058-1.283L7.514,4.95C7.741,4.984,7.96,4.849,8.032,4.631L8.68,2.676	c0.213-0.643,0.966-0.883,1.488-0.475l1.543,1.204c0.17,0.133,0.408,0.133,0.578,0l1.543-1.204c0.523-0.408,1.275-0.168,1.488,0.475	l0.648,1.955c0.072,0.218,0.291,0.353,0.519,0.319l2.323-0.345c0.697-0.104,1.262,0.581,1.058,1.283l-0.637,2.187	c-0.071,0.243,0.063,0.521,0.297,0.617l2.084,0.854c0.681,0.279,0.842,1.172,0.3,1.671L20.327,12.673z M16.598,15.277v-3.679	C16.598,9.059,14.539,7,12,7s-4.598,2.059-4.598,4.598v3.679c0,2.54,2.059,4.598,4.598,4.598S16.598,17.816,16.598,15.277z"/></svg>