<svg xmlns="http://www.w3.org/2000/svg"  viewBox="0 0 24 24" width="24px" height="24px" baseProfile="basic"><path fill="#ffe8a1" d="M12,20.5L12,20.5c2.761,0,5-2.239,5-5v-4c0-2.761-2.239-5-5-5h0c-2.761,0-5,2.239-5,5v4	C7,18.261,9.239,20.5,12,20.5z"/><path fill="#f2cf35" d="M13.934,16.75c-1.284-0.481-2.584-0.481-3.868,0c-0.23,0.086-0.346,0.343-0.26,0.572	c0.086,0.23,0.342,0.343,0.572,0.26c0.199-0.072,0.287-0.035,0.33,0.116c0.076,0.27,0.269,0.399,0.485,0.371	c0.243-0.032,0.363-0.201,0.363-0.447c0-0.183,0.049-0.33,0.445-0.33c0.538,0,1.076,0.086,1.621,0.29	c0.052,0.019,0.104,0.028,0.156,0.028c0.18,0,0.349-0.11,0.416-0.288C14.28,17.093,14.164,16.837,13.934,16.75z"/><path fill="#f2cf35" d="M13.555,12.5c-0.245,0-0.444,0.199-0.444,0.444s0.199,0.444,0.444,0.444S14,13.19,14,12.945	S13.801,12.5,13.555,12.5z M10.444,12.5C10.199,12.5,10,12.699,10,12.945s0.199,0.444,0.444,0.444s0.444-0.199,0.444-0.444	S10.69,12.5,10.444,12.5z M14.995,10.516c-2.111,0.57-4.339,0.574-5.96,0.009c-0.232-0.081-0.485,0.042-0.566,0.274	c-0.081,0.232,0.045,0.477,0.273,0.566c0.266,0.103,0.189,0.255,0.036,0.484c-0.21,0.314-0.334,0.69-0.334,1.096	c0,1.103,0.897,2,2,2c0.234,0,0.458-0.04,0.666-0.115c0.26-0.092,0.445-0.049,0.445,0.167v0.392c0,0.245,0.199,0.444,0.444,0.444	s0.444-0.199,0.444-0.444c0,0,0-0.175,0-0.392s0.185-0.26,0.445-0.167c0.208,0.074,0.433,0.115,0.666,0.115c1.103,0,2-0.897,2-2	c0-0.415-0.129-0.797-0.348-1.115c-0.156-0.228-0.198-0.385,0.02-0.456c0.233-0.076,0.377-0.308,0.313-0.545	C15.475,10.592,15.23,10.453,14.995,10.516z M10.444,14.056c-0.613,0-1.111-0.499-1.111-1.111s0.498-1.111,1.111-1.111	s1.111,0.499,1.111,1.111S11.057,14.056,10.444,14.056z M13.555,14.056c-0.613,0-1.111-0.499-1.111-1.111s0.498-1.111,1.111-1.111	s1.111,0.499,1.111,1.111S14.168,14.056,13.555,14.056z"/><path fill="#f2cf35" d="M21.91,11.216c0.542-0.499,0.382-1.392-0.3-1.671l-2.084-0.854c-0.234-0.096-0.368-0.374-0.297-0.617	l0.637-2.187c0.204-0.701-0.36-1.386-1.058-1.283L16.485,4.95c-0.227,0.034-0.446-0.101-0.519-0.319l-0.648-1.955	c-0.213-0.643-0.965-0.883-1.488-0.475l-1.543,1.204c-0.17,0.133-0.408,0.133-0.578,0l-1.543-1.204	C9.646,1.793,8.893,2.033,8.68,2.676L8.032,4.631C7.96,4.849,7.741,4.984,7.514,4.95L5.191,4.605	C4.494,4.501,3.929,5.186,4.133,5.887l0.641,2.2C4.845,8.331,4.72,8.589,4.486,8.686L2.407,9.538	c-0.689,0.283-0.851,1.186-0.303,1.691l1.568,1.443c0.211,0.194,0.221,0.524,0.022,0.731l-1.131,1.176	c-0.422,0.439-0.365,1.149,0.122,1.515l0.995,0.747c0.156,0.117,0.23,0.314,0.19,0.505l-0.231,1.106	c-0.146,0.697,0.436,1.325,1.11,1.2l1.11-0.322c0.387-0.112,0.817-0.008,1.076,0.3C8.149,21.077,9.968,22,12,22	s3.851-0.923,5.064-2.37c0.259-0.308,0.689-0.412,1.076-0.3l1.11,0.322c0.675,0.125,1.256-0.503,1.11-1.199l-0.231-1.106	c-0.04-0.191,0.034-0.388,0.19-0.505l0.995-0.748c0.487-0.366,0.545-1.076,0.122-1.516l-1.131-1.177	c-0.198-0.206-0.188-0.535,0.022-0.729L21.91,11.216z M12,19.875c-2.54,0-4.598-2.059-4.598-4.598v-3.679C7.402,9.059,9.46,7,12,7	s4.598,2.059,4.598,4.598v3.679C16.598,17.816,14.539,19.875,12,19.875z"/></svg>